<?xml version="1.0" encoding="utf-8"?>
<svg viewBox="124.1529 168.7036 502.02 254.0788" width="502.02" height="254.0788" xmlns="http://www.w3.org/2000/svg">
  <defs>
    <style>.cls-1{fill:#214c9b;stroke-width:0px;}</style>
  </defs>
  <g id="Calque_1-2" transform="matrix(1, 0, 0, 1, -231.01708984375003, 307.19244384765625)">
    <path class="cls-1" d="m368.07,24.14l1.65,1.28c-1.41,1.91-3.67,3.17-6.45,3.17-4.82,0-8.1-3.74-8.1-8.14s3.28-8.14,8.1-8.14c2.77,0,5.04,1.28,6.45,3.17l-1.65,1.28c-1.03-1.5-2.73-2.51-4.8-2.51-3.48,0-5.96,2.77-5.96,6.21s2.49,6.21,5.96,6.21c2.07,0,3.76-1.01,4.8-2.51Z"/>
    <path class="cls-1" d="m383.53,22.6c0,3.23-2.44,5.99-6.01,5.99s-6.01-2.75-6.01-5.99,2.42-5.98,6.01-5.98,6.01,2.75,6.01,5.98Zm-1.98,0c0-2.31-1.69-4.22-4-4.22s-4.07,1.91-4.07,4.22,1.69,4.22,4.07,4.22,4-1.94,4-4.22Z"/>
    <path class="cls-1" d="m386.55,17.05h1.87v1.25c.9-.99,2.05-1.69,3.7-1.69,2.49,0,4.33,1.67,4.33,4.82v6.71h-1.89v-6.65c0-1.98-1.1-3.12-2.82-3.12-1.61,0-2.62.92-3.32,2.09v7.68h-1.87v-11.09Z"/>
    <path class="cls-1" d="m408.46,25.17l1.5,1.14c-1.03,1.39-2.64,2.27-4.66,2.27-3.67,0-6.03-2.75-6.03-5.99s2.35-5.98,6.03-5.98c2,0,3.63.9,4.66,2.27l-1.5,1.14c-.68-.99-1.8-1.65-3.17-1.65-2.38,0-4.07,1.87-4.07,4.22s1.69,4.22,4.09,4.22c1.36,0,2.46-.66,3.15-1.65Z"/>
    <path class="cls-1" d="m417.19,28.58c-3.74,0-6.05-2.75-6.05-5.99s2.16-5.98,5.59-5.98c3.01,0,4.97,2.05,4.97,4.82,0,.44-.07.88-.13,1.19h-8.49v.04c0,2.44,1.67,4.22,4.16,4.22,1.41,0,2.6-.66,3.32-1.65l1.39,1.08c-1.03,1.39-2.68,2.27-4.75,2.27Zm-3.96-7.44h6.58c-.07-1.61-1.23-2.93-3.06-2.93s-3.08,1.01-3.52,2.93Z"/>
    <path class="cls-1" d="m424.87,17.05h1.87v1.23c1.01-1.08,2.33-1.67,3.94-1.67,3.48,0,5.7,2.75,5.7,5.98s-2.22,5.99-5.7,5.99c-1.61,0-2.93-.59-3.94-1.67v6.65h-1.87v-16.5Zm5.59,9.77c2.35,0,3.96-1.87,3.96-4.22s-1.61-4.22-3.96-4.22c-1.54,0-2.86.75-3.72,2.11v4.22c.86,1.36,2.18,2.11,3.72,2.11Z"/>
    <path class="cls-1" d="m439.85,18.77h-2.09v-1.72h2.09v-2.77h1.89v2.77h3.85v1.72h-3.85v5.65c0,1.74.88,2.22,2.22,2.22.73,0,1.23-.09,1.65-.26v1.67c-.53.22-1.12.31-1.91.31-2.46,0-3.85-1.23-3.85-3.94v-5.65Z"/>
    <path class="cls-1" d="m448.08,12.85c0-.7.59-1.3,1.32-1.3s1.3.59,1.3,1.3-.57,1.32-1.3,1.32-1.32-.59-1.32-1.32Zm.37,4.2h1.87v11.09h-1.87v-11.09Z"/>
    <path class="cls-1" d="m465.35,22.6c0,3.23-2.44,5.99-6.01,5.99s-6.01-2.75-6.01-5.99,2.42-5.98,6.01-5.98,6.01,2.75,6.01,5.98Zm-1.98,0c0-2.31-1.69-4.22-4-4.22s-4.07,1.91-4.07,4.22,1.69,4.22,4.07,4.22,4-1.94,4-4.22Z"/>
    <path class="cls-1" d="m468.36,17.05h1.87v1.25c.9-.99,2.05-1.69,3.7-1.69,2.49,0,4.33,1.67,4.33,4.82v6.71h-1.89v-6.65c0-1.98-1.1-3.12-2.82-3.12-1.61,0-2.62.92-3.32,2.09v7.68h-1.87v-11.09Z"/>
    <path class="cls-1" d="m493.07,28.58c-3.74,0-6.05-2.75-6.05-5.99s2.16-5.98,5.59-5.98c3.01,0,4.97,2.05,4.97,4.82,0,.44-.07.88-.13,1.19h-8.49v.04c0,2.44,1.67,4.22,4.16,4.22,1.41,0,2.6-.66,3.32-1.65l1.39,1.08c-1.03,1.39-2.68,2.27-4.75,2.27Zm-3.96-7.44h6.58c-.07-1.61-1.23-2.93-3.06-2.93s-3.08,1.01-3.52,2.93Z"/>
    <path class="cls-1" d="m501.32,18.77h-2.09v-1.72h2.09v-2.77h1.89v2.77h3.85v1.72h-3.85v5.65c0,1.74.88,2.22,2.22,2.22.73,0,1.23-.09,1.65-.26v1.67c-.53.22-1.12.31-1.91.31-2.46,0-3.85-1.23-3.85-3.94v-5.65Z"/>
    <path class="cls-1" d="m520.61,16.61c1.61,0,2.93.59,3.94,1.67v-6.65h1.87v16.5h-1.87v-1.23c-1.01,1.08-2.33,1.67-3.94,1.67-3.48,0-5.7-2.75-5.7-5.99s2.22-5.98,5.7-5.98Zm.22,10.21c1.54,0,2.86-.75,3.72-2.07v-4.31c-.88-1.34-2.2-2.07-3.72-2.07-2.35,0-3.94,1.87-3.94,4.22s1.58,4.22,3.94,4.22Z"/>
    <path class="cls-1" d="m529.99,12.85c0-.7.59-1.3,1.32-1.3s1.3.59,1.3,1.3-.57,1.32-1.3,1.32-1.32-.59-1.32-1.32Zm.37,4.2h1.87v11.09h-1.87v-11.09Z"/>
    <path class="cls-1" d="m536.83,17.05v-1.36c0-2.38,1.56-4.05,3.94-4.05,1.23,0,2.2.44,2.86,1.08l-1.17,1.36c-.4-.44-.9-.75-1.67-.75-1.21,0-2.07.88-2.07,2.31v1.41h3.85v1.72h-3.85v9.37h-1.89v-9.37h-2.09v-1.72h2.09Z"/>
    <path class="cls-1" d="m545.8,17.05v-1.36c0-2.38,1.56-4.05,3.94-4.05,1.23,0,2.2.44,2.86,1.08l-1.17,1.36c-.4-.44-.9-.75-1.67-.75-1.21,0-2.07.88-2.07,2.31v1.41h3.85v1.72h-3.85v9.37h-1.89v-9.37h-2.09v-1.72h2.09Z"/>
    <path class="cls-1" d="m561.4,17.05h1.89v6.27c0,3.32-1.91,5.26-4.93,5.26s-4.91-1.94-4.91-5.26v-6.27h1.87v6.34c0,2.18,1.17,3.43,3.06,3.43s3.01-1.25,3.01-3.43v-6.34Z"/>
    <path class="cls-1" d="m567.08,25.48c.77.97,1.69,1.54,2.82,1.54,1.23,0,1.94-.75,1.94-1.72,0-2.51-5.43-1.58-5.43-5.57,0-1.78,1.47-3.12,3.56-3.12,1.63,0,2.99.75,3.76,1.83l-1.3,1.12c-.62-.88-1.43-1.39-2.44-1.39-1.14,0-1.76.62-1.76,1.52,0,2.53,5.43,1.65,5.43,5.52-.02,2.07-1.67,3.37-3.74,3.37-1.76,0-3.15-.7-4.16-1.96l1.32-1.14Z"/>
    <path class="cls-1" d="m576.32,12.85c0-.7.59-1.3,1.32-1.3s1.3.59,1.3,1.3-.57,1.32-1.3,1.32-1.32-.59-1.32-1.32Zm.37,4.2h1.87v11.09h-1.87v-11.09Z"/>
    <path class="cls-1" d="m593.59,22.6c0,3.23-2.44,5.99-6.01,5.99s-6.01-2.75-6.01-5.99,2.42-5.98,6.01-5.98,6.01,2.75,6.01,5.98Zm-1.98,0c0-2.31-1.69-4.22-4-4.22s-4.07,1.91-4.07,4.22,1.69,4.22,4.07,4.22,4-1.94,4-4.22Z"/>
    <path class="cls-1" d="m596.6,17.05h1.87v1.25c.9-.99,2.05-1.69,3.7-1.69,2.49,0,4.33,1.67,4.33,4.82v6.71h-1.89v-6.65c0-1.98-1.1-3.12-2.82-3.12-1.61,0-2.62.92-3.32,2.09v7.68h-1.87v-11.09Z"/>
    <path class="cls-1" d="m620.95,16.61c1.61,0,2.93.59,3.94,1.67v-6.65h1.87v16.5h-1.87v-1.23c-1.01,1.08-2.33,1.67-3.94,1.67-3.48,0-5.7-2.75-5.7-5.99s2.22-5.98,5.7-5.98Zm.22,10.21c1.54,0,2.86-.75,3.72-2.07v-4.31c-.88-1.34-2.2-2.07-3.72-2.07-2.35,0-3.94,1.87-3.94,4.22s1.58,4.22,3.94,4.22Z"/>
    <path class="cls-1" d="m635.8,28.58c-3.74,0-6.05-2.75-6.05-5.99s2.16-5.98,5.59-5.98c3.01,0,4.97,2.05,4.97,4.82,0,.44-.07.88-.13,1.19h-8.49v.04c0,2.44,1.67,4.22,4.16,4.22,1.41,0,2.6-.66,3.32-1.65l1.39,1.08c-1.03,1.39-2.68,2.27-4.75,2.27Zm-3.96-7.44h6.58c-.07-1.61-1.23-2.93-3.06-2.93s-3.08,1.01-3.52,2.93Z"/>
    <path class="cls-1" d="m650.06,17.05v-1.36c0-2.38,1.56-4.05,3.94-4.05,1.23,0,2.2.44,2.86,1.08l-1.17,1.36c-.4-.44-.9-.75-1.67-.75-1.21,0-2.07.88-2.07,2.31v1.41h3.85v1.72h-3.85v9.37h-1.89v-9.37h-2.09v-1.72h2.09Z"/>
    <path class="cls-1" d="m668.54,22.6c0,3.23-2.44,5.99-6.01,5.99s-6.01-2.75-6.01-5.99,2.42-5.98,6.01-5.98,6.01,2.75,6.01,5.98Zm-1.98,0c0-2.31-1.69-4.22-4-4.22s-4.07,1.91-4.07,4.22,1.69,4.22,4.07,4.22,4-1.94,4-4.22Z"/>
    <path class="cls-1" d="m671.55,17.05h1.87v1.39c.81-.97,1.83-1.61,3.23-1.61.35,0,.68.04.95.13v1.94c-.33-.09-.66-.15-1.1-.15-1.45,0-2.4.75-3.08,1.87v7.52h-1.87v-11.09Z"/>
    <path class="cls-1" d="m680.29,17.05h1.87v1.21c.84-.97,1.94-1.65,3.48-1.65,1.63,0,2.97.75,3.65,2.22.88-1.25,2.09-2.22,3.92-2.22,2.38,0,4.11,1.58,4.11,4.6v6.93h-1.87v-6.87c0-1.85-1.03-2.9-2.62-2.9-1.41,0-2.38.81-3.12,2.11.02.24.04.48.04.73v6.93h-1.89v-6.87c0-1.85-.99-2.9-2.6-2.9-1.52,0-2.46.95-3.1,2.09v7.68h-1.87v-11.09Z"/>
    <path class="cls-1" d="m700.46,25.41c0-1.72,1.28-2.95,3.65-3.32l3.72-.62v-.77c0-1.54-1.1-2.42-2.66-2.42-1.3,0-2.38.57-3.01,1.54l-1.41-1.08c.97-1.32,2.53-2.13,4.47-2.13,2.82,0,4.49,1.65,4.49,4.09v7.44h-1.87v-1.41c-.84,1.17-2.22,1.85-3.72,1.85-2.18,0-3.65-1.23-3.65-3.17Zm3.96,1.61c1.47,0,2.64-.77,3.41-2.05v-2.11l-3.28.57c-1.54.24-2.22.95-2.22,1.91s.81,1.67,2.09,1.67Z"/>
    <path class="cls-1" d="m714.12,18.77h-2.09v-1.72h2.09v-2.77h1.89v2.77h3.85v1.72h-3.85v5.65c0,1.74.88,2.22,2.22,2.22.73,0,1.23-.09,1.65-.26v1.67c-.53.22-1.12.31-1.91.31-2.46,0-3.85-1.23-3.85-3.94v-5.65Z"/>
    <path class="cls-1" d="m722.35,12.85c0-.7.59-1.3,1.32-1.3s1.3.59,1.3,1.3-.57,1.32-1.3,1.32-1.32-.59-1.32-1.32Zm.37,4.2h1.87v11.09h-1.87v-11.09Z"/>
    <path class="cls-1" d="m739.62,22.6c0,3.23-2.44,5.99-6.01,5.99s-6.01-2.75-6.01-5.99,2.42-5.98,6.01-5.98,6.01,2.75,6.01,5.98Zm-1.98,0c0-2.31-1.69-4.22-4-4.22s-4.07,1.91-4.07,4.22,1.69,4.22,4.07,4.22,4-1.94,4-4.22Z"/>
    <path class="cls-1" d="m742.64,17.05h1.87v1.25c.9-.99,2.05-1.69,3.7-1.69,2.49,0,4.33,1.67,4.33,4.82v6.71h-1.89v-6.65c0-1.98-1.1-3.12-2.82-3.12-1.61,0-2.62.92-3.32,2.09v7.68h-1.87v-11.09Z"/>
    <path class="cls-1" d="m756.43,25.48c.77.97,1.69,1.54,2.82,1.54,1.23,0,1.94-.75,1.94-1.72,0-2.51-5.43-1.58-5.43-5.57,0-1.78,1.47-3.12,3.56-3.12,1.63,0,2.99.75,3.76,1.83l-1.3,1.12c-.62-.88-1.43-1.39-2.44-1.39-1.14,0-1.76.62-1.76,1.52,0,2.53,5.43,1.65,5.43,5.52-.02,2.07-1.67,3.37-3.74,3.37-1.76,0-3.15-.7-4.16-1.96l1.32-1.14Z"/>
    <path class="cls-1" d="m776.74,16.61c1.61,0,2.93.59,3.94,1.67v-6.65h1.87v16.5h-1.87v-1.23c-1.01,1.08-2.33,1.67-3.94,1.67-3.48,0-5.7-2.75-5.7-5.99s2.22-5.98,5.7-5.98Zm.22,10.21c1.54,0,2.86-.75,3.72-2.07v-4.31c-.88-1.34-2.2-2.07-3.72-2.07-2.35,0-3.94,1.87-3.94,4.22s1.58,4.22,3.94,4.22Z"/>
    <path class="cls-1" d="m786.11,12.85c0-.7.59-1.3,1.32-1.3s1.3.59,1.3,1.3-.57,1.32-1.3,1.32-1.32-.59-1.32-1.32Zm.37,4.2h1.87v11.09h-1.87v-11.09Z"/>
    <path class="cls-1" d="m792.68,27.35c-.51-.4-.77-.99-.77-1.58,0-.88.46-1.61,1.32-2.16-.97-.73-1.54-1.85-1.54-3.08,0-2.13,1.67-3.94,4.31-3.94.81,0,1.54.18,2.13.46h4.11v1.63h-2.4c.31.55.46,1.19.46,1.85,0,2.11-1.65,3.92-4.31,3.92-.55,0-1.08-.09-1.54-.22-.46.33-.73.73-.73,1.14,0,.46.24.79.92.79h3.17c2.93,0,4.29,1.43,4.29,3.41,0,2.38-2.24,4.07-5.66,4.07s-5.43-1.28-5.43-3.5c0-1.12.57-2,1.65-2.79Zm3.76,4.73c2.33,0,3.81-.92,3.81-2.38,0-1.06-.59-1.89-2.58-1.89h-3.37c-.95.57-1.45,1.21-1.45,2.11,0,1.34,1.39,2.16,3.59,2.16Zm2.11-11.55c0-1.36-.92-2.46-2.53-2.46s-2.55,1.1-2.55,2.46.9,2.44,2.55,2.44,2.53-1.1,2.53-2.44Z"/>
    <path class="cls-1" d="m804.04,12.85c0-.7.59-1.3,1.32-1.3s1.3.59,1.3,1.3-.57,1.32-1.3,1.32-1.32-.59-1.32-1.32Zm.37,4.2h1.87v11.09h-1.87v-11.09Z"/>
    <path class="cls-1" d="m810.88,18.77h-2.09v-1.72h2.09v-2.77h1.89v2.77h3.85v1.72h-3.85v5.65c0,1.74.88,2.22,2.22,2.22.73,0,1.23-.09,1.65-.26v1.67c-.53.22-1.12.31-1.91.31-2.46,0-3.85-1.23-3.85-3.94v-5.65Z"/>
    <path class="cls-1" d="m818.86,25.41c0-1.72,1.28-2.95,3.65-3.32l3.72-.62v-.77c0-1.54-1.1-2.42-2.66-2.42-1.3,0-2.38.57-3.01,1.54l-1.41-1.08c.97-1.32,2.53-2.13,4.47-2.13,2.82,0,4.49,1.65,4.49,4.09v7.44h-1.87v-1.41c-.84,1.17-2.22,1.85-3.72,1.85-2.18,0-3.65-1.23-3.65-3.17Zm3.96,1.61c1.47,0,2.64-.77,3.41-2.05v-2.11l-3.28.57c-1.54.24-2.22.95-2.22,1.91s.81,1.67,2.09,1.67Z"/>
    <path class="cls-1" d="m831.89,11.64h1.87v16.5h-1.87V11.64Z"/>
    <path class="cls-1" d="m842.82,28.58c-3.74,0-6.05-2.75-6.05-5.99s2.16-5.98,5.59-5.98c3.01,0,4.97,2.05,4.97,4.82,0,.44-.07.88-.13,1.19h-8.49v.04c0,2.44,1.67,4.22,4.16,4.22,1.41,0,2.6-.66,3.32-1.65l1.39,1.08c-1.03,1.39-2.68,2.27-4.75,2.27Zm-3.96-7.44h6.58c-.07-1.61-1.23-2.93-3.06-2.93s-3.08,1.01-3.52,2.93Z"/>
    <path class="cls-1" d="m850.54,25.48c.77.97,1.69,1.54,2.82,1.54,1.23,0,1.94-.75,1.94-1.72,0-2.51-5.43-1.58-5.43-5.57,0-1.78,1.47-3.12,3.56-3.12,1.63,0,2.99.75,3.76,1.83l-1.3,1.12c-.62-.88-1.43-1.39-2.44-1.39-1.14,0-1.76.62-1.76,1.52,0,2.53,5.43,1.65,5.43,5.52-.02,2.07-1.67,3.37-3.74,3.37-1.76,0-3.15-.7-4.16-1.96l1.32-1.14Z"/>
    <path class="cls-1" d="m395.54,41.74h8.27v1.8h-6.2v4.86h5.32v1.78h-5.32v6.95h-2.07v-15.4Z"/>
    <path class="cls-1" d="m417.17,51.6c0,3.23-2.44,5.99-6.01,5.99s-6.01-2.75-6.01-5.99,2.42-5.98,6.01-5.98,6.01,2.75,6.01,5.98Zm-1.98,0c0-2.31-1.69-4.22-4-4.22s-4.07,1.91-4.07,4.22,1.69,4.22,4.07,4.22,4-1.94,4-4.22Z"/>
    <path class="cls-1" d="m420.18,46.05h1.87v1.39c.81-.97,1.83-1.61,3.23-1.61.35,0,.68.04.95.13v1.94c-.33-.09-.66-.15-1.1-.15-1.45,0-2.4.75-3.08,1.87v7.53h-1.87v-11.09Z"/>
    <path class="cls-1" d="m428.92,46.05h1.87v1.21c.84-.97,1.94-1.65,3.48-1.65,1.63,0,2.97.75,3.65,2.22.88-1.25,2.09-2.22,3.92-2.22,2.38,0,4.11,1.58,4.11,4.6v6.93h-1.87v-6.87c0-1.85-1.03-2.9-2.62-2.9-1.41,0-2.38.81-3.12,2.11.02.24.04.48.04.73v6.93h-1.89v-6.87c0-1.85-.99-2.9-2.6-2.9-1.52,0-2.46.95-3.1,2.09v7.68h-1.87v-11.09Z"/>
    <path class="cls-1" d="m449.33,41.85c0-.7.59-1.3,1.32-1.3s1.3.59,1.3,1.3-.57,1.32-1.3,1.32-1.32-.59-1.32-1.32Zm.37,4.2h1.87v11.09h-1.87v-11.09Z"/>
    <path class="cls-1" d="m454.53,60.66l1.87-5.83h2.13l-2.27,5.83h-1.74Z"/>
    <path class="cls-1" d="m467.42,46.05h1.87v1.23c1.01-1.08,2.33-1.67,3.94-1.67,3.48,0,5.7,2.75,5.7,5.98s-2.22,5.99-5.7,5.99c-1.61,0-2.93-.59-3.94-1.67v6.65h-1.87v-16.5Zm5.59,9.77c2.35,0,3.96-1.87,3.96-4.22s-1.61-4.22-3.96-4.22c-1.54,0-2.86.75-3.72,2.11v4.22c.86,1.36,2.18,2.11,3.72,2.11Z"/>
    <path class="cls-1" d="m481.94,40.64h1.87v16.5h-1.87v-16.5Z"/>
    <path class="cls-1" d="m487.15,54.41c0-1.72,1.28-2.95,3.65-3.32l3.72-.62v-.77c0-1.54-1.1-2.42-2.66-2.42-1.3,0-2.38.57-3.01,1.54l-1.41-1.08c.97-1.32,2.53-2.13,4.47-2.13,2.82,0,4.49,1.65,4.49,4.09v7.44h-1.87v-1.41c-.84,1.17-2.22,1.85-3.72,1.85-2.18,0-3.65-1.23-3.65-3.17Zm3.96,1.61c1.47,0,2.64-.77,3.41-2.05v-2.11l-3.28.57c-1.54.24-2.22.95-2.22,1.92s.81,1.67,2.09,1.67Z"/>
    <path class="cls-1" d="m500.81,47.77h-2.09v-1.72h2.09v-2.77h1.89v2.77h3.85v1.72h-3.85v5.65c0,1.74.88,2.22,2.22,2.22.73,0,1.23-.09,1.65-.26v1.67c-.53.22-1.12.31-1.92.31-2.46,0-3.85-1.23-3.85-3.94v-5.65Z"/>
    <path class="cls-1" d="m514.3,57.58c-3.74,0-6.05-2.75-6.05-5.99s2.16-5.98,5.59-5.98c3.01,0,4.97,2.05,4.97,4.82,0,.44-.07.88-.13,1.19h-8.49v.04c0,2.44,1.67,4.22,4.16,4.22,1.41,0,2.6-.66,3.32-1.65l1.39,1.08c-1.04,1.39-2.69,2.27-4.75,2.27Zm-3.96-7.44h6.58c-.07-1.61-1.23-2.93-3.06-2.93s-3.08,1.01-3.52,2.93Z"/>
    <path class="cls-1" d="m522.61,46.05v-1.36c0-2.38,1.56-4.05,3.94-4.05,1.23,0,2.2.44,2.86,1.08l-1.17,1.36c-.4-.44-.9-.75-1.67-.75-1.21,0-2.07.88-2.07,2.31v1.41h3.85v1.72h-3.85v9.37h-1.89v-9.37h-2.09v-1.72h2.09Z"/>
    <path class="cls-1" d="m541.1,51.6c0,3.23-2.44,5.99-6.01,5.99s-6.01-2.75-6.01-5.99,2.42-5.98,6.01-5.98,6.01,2.75,6.01,5.98Zm-1.98,0c0-2.31-1.69-4.22-4-4.22s-4.07,1.91-4.07,4.22,1.69,4.22,4.07,4.22,4-1.94,4-4.22Z"/>
    <path class="cls-1" d="m544.11,46.05h1.87v1.39c.81-.97,1.83-1.61,3.23-1.61.35,0,.68.04.95.13v1.94c-.33-.09-.66-.15-1.1-.15-1.45,0-2.4.75-3.08,1.87v7.53h-1.87v-11.09Z"/>
    <path class="cls-1" d="m552.84,46.05h1.87v1.21c.84-.97,1.94-1.65,3.48-1.65,1.63,0,2.97.75,3.65,2.22.88-1.25,2.09-2.22,3.92-2.22,2.38,0,4.12,1.58,4.12,4.6v6.93h-1.87v-6.87c0-1.85-1.03-2.9-2.62-2.9-1.41,0-2.38.81-3.12,2.11.02.24.04.48.04.73v6.93h-1.89v-6.87c0-1.85-.99-2.9-2.6-2.9-1.52,0-2.46.95-3.1,2.09v7.68h-1.87v-11.09Z"/>
    <path class="cls-1" d="m578.74,57.58c-3.74,0-6.05-2.75-6.05-5.99s2.16-5.98,5.59-5.98c3.01,0,4.97,2.05,4.97,4.82,0,.44-.07.88-.13,1.19h-8.49v.04c0,2.44,1.67,4.22,4.16,4.22,1.41,0,2.6-.66,3.32-1.65l1.39,1.08c-1.04,1.39-2.69,2.27-4.75,2.27Zm-3.96-7.44h6.58c-.07-1.61-1.23-2.93-3.06-2.93s-3.08,1.01-3.52,2.93Z"/>
    <path class="cls-1" d="m597.11,45.61c1.61,0,2.93.59,3.94,1.67v-6.64h1.87v16.5h-1.87v-1.23c-1.01,1.08-2.33,1.67-3.94,1.67-3.48,0-5.7-2.75-5.7-5.99s2.22-5.98,5.7-5.98Zm.22,10.21c1.54,0,2.86-.75,3.72-2.07v-4.31c-.88-1.34-2.2-2.07-3.72-2.07-2.35,0-3.94,1.87-3.94,4.22s1.58,4.22,3.94,4.22Z"/>
    <path class="cls-1" d="m611.96,57.58c-3.74,0-6.05-2.75-6.05-5.99s2.16-5.98,5.59-5.98c3.01,0,4.97,2.05,4.97,4.82,0,.44-.07.88-.13,1.19h-8.49v.04c0,2.44,1.67,4.22,4.16,4.22,1.41,0,2.6-.66,3.32-1.65l1.39,1.08c-1.03,1.39-2.68,2.27-4.75,2.27Zm-3.96-7.44h6.58c-.07-1.61-1.23-2.93-3.06-2.93s-3.08,1.01-3.52,2.93Z"/>
    <path class="cls-1" d="m626.21,46.05v-1.36c0-2.38,1.56-4.05,3.94-4.05,1.23,0,2.2.44,2.86,1.08l-1.17,1.36c-.4-.44-.9-.75-1.67-.75-1.21,0-2.07.88-2.07,2.31v1.41h3.85v1.72h-3.85v9.37h-1.89v-9.37h-2.09v-1.72h2.09Z"/>
    <path class="cls-1" d="m644.69,51.6c0,3.23-2.44,5.99-6.01,5.99s-6.01-2.75-6.01-5.99,2.42-5.98,6.01-5.98,6.01,2.75,6.01,5.98Zm-1.98,0c0-2.31-1.69-4.22-4-4.22s-4.07,1.91-4.07,4.22,1.69,4.22,4.07,4.22,4-1.94,4-4.22Z"/>
    <path class="cls-1" d="m647.71,46.05h1.87v1.39c.81-.97,1.83-1.61,3.23-1.61.35,0,.68.04.95.13v1.94c-.33-.09-.66-.15-1.1-.15-1.45,0-2.4.75-3.08,1.87v7.53h-1.87v-11.09Z"/>
    <path class="cls-1" d="m656.44,46.05h1.87v1.21c.84-.97,1.94-1.65,3.48-1.65,1.63,0,2.97.75,3.65,2.22.88-1.25,2.09-2.22,3.92-2.22,2.38,0,4.11,1.58,4.11,4.6v6.93h-1.87v-6.87c0-1.85-1.03-2.9-2.62-2.9-1.41,0-2.38.81-3.12,2.11.02.24.04.48.04.73v6.93h-1.89v-6.87c0-1.85-.99-2.9-2.6-2.9-1.52,0-2.46.95-3.1,2.09v7.68h-1.87v-11.09Z"/>
    <path class="cls-1" d="m676.61,54.41c0-1.72,1.28-2.95,3.65-3.32l3.72-.62v-.77c0-1.54-1.1-2.42-2.66-2.42-1.3,0-2.38.57-3.01,1.54l-1.41-1.08c.97-1.32,2.53-2.13,4.47-2.13,2.82,0,4.49,1.65,4.49,4.09v7.44h-1.87v-1.41c-.84,1.17-2.22,1.85-3.72,1.85-2.18,0-3.65-1.23-3.65-3.17Zm3.96,1.61c1.47,0,2.64-.77,3.41-2.05v-2.11l-3.28.57c-1.54.24-2.22.95-2.22,1.92s.81,1.67,2.09,1.67Z"/>
    <path class="cls-1" d="m690.28,47.77h-2.09v-1.72h2.09v-2.77h1.89v2.77h3.85v1.72h-3.85v5.65c0,1.74.88,2.22,2.22,2.22.73,0,1.23-.09,1.65-.26v1.67c-.53.22-1.12.31-1.91.31-2.46,0-3.85-1.23-3.85-3.94v-5.65Z"/>
    <path class="cls-1" d="m698.5,41.85c0-.7.59-1.3,1.32-1.3s1.3.59,1.3,1.3-.57,1.32-1.3,1.32-1.32-.59-1.32-1.32Zm.37,4.2h1.87v11.09h-1.87v-11.09Z"/>
    <path class="cls-1" d="m715.78,51.6c0,3.23-2.44,5.99-6.01,5.99s-6.01-2.75-6.01-5.99,2.42-5.98,6.01-5.98,6.01,2.75,6.01,5.98Zm-1.98,0c0-2.31-1.69-4.22-4-4.22s-4.07,1.91-4.07,4.22,1.69,4.22,4.07,4.22,4-1.94,4-4.22Z"/>
    <path class="cls-1" d="m718.79,46.05h1.87v1.25c.9-.99,2.05-1.69,3.7-1.69,2.49,0,4.33,1.67,4.33,4.82v6.71h-1.89v-6.64c0-1.98-1.1-3.12-2.82-3.12-1.61,0-2.62.92-3.32,2.09v7.68h-1.87v-11.09Z"/>
    <path class="cls-1" d="m743.49,57.58c-3.74,0-6.05-2.75-6.05-5.99s2.16-5.98,5.59-5.98c3.01,0,4.97,2.05,4.97,4.82,0,.44-.07.88-.13,1.19h-8.49v.04c0,2.44,1.67,4.22,4.16,4.22,1.41,0,2.6-.66,3.32-1.65l1.39,1.08c-1.03,1.39-2.68,2.27-4.75,2.27Zm-3.96-7.44h6.58c-.07-1.61-1.23-2.93-3.06-2.93s-3.08,1.01-3.52,2.93Z"/>
    <path class="cls-1" d="m751.17,46.05h1.87v1.25c.9-.99,2.05-1.69,3.7-1.69,2.49,0,4.33,1.67,4.33,4.82v6.71h-1.89v-6.64c0-1.98-1.1-3.12-2.82-3.12-1.61,0-2.62.92-3.32,2.09v7.68h-1.87v-11.09Z"/>
    <path class="cls-1" d="m770.77,40.64h1.87v16.5h-1.87v-16.5Z"/>
    <path class="cls-1" d="m776.23,41.85c0-.7.59-1.3,1.32-1.3s1.3.59,1.3,1.3-.57,1.32-1.3,1.32-1.32-.59-1.32-1.32Zm.37,4.2h1.87v11.09h-1.87v-11.09Z"/>
    <path class="cls-1" d="m782.81,56.35c-.51-.4-.77-.99-.77-1.58,0-.88.46-1.61,1.32-2.16-.97-.73-1.54-1.85-1.54-3.08,0-2.13,1.67-3.94,4.31-3.94.81,0,1.54.18,2.13.46h4.11v1.63h-2.4c.31.55.46,1.19.46,1.85,0,2.11-1.65,3.92-4.31,3.92-.55,0-1.08-.09-1.54-.22-.46.33-.73.73-.73,1.14,0,.46.24.79.92.79h3.17c2.93,0,4.29,1.43,4.29,3.41,0,2.38-2.24,4.07-5.66,4.07s-5.43-1.28-5.43-3.5c0-1.12.57-2,1.65-2.79Zm3.76,4.73c2.33,0,3.81-.92,3.81-2.38,0-1.06-.59-1.89-2.58-1.89h-3.37c-.95.57-1.45,1.21-1.45,2.11,0,1.34,1.39,2.16,3.59,2.16Zm2.11-11.55c0-1.36-.92-2.46-2.53-2.46s-2.55,1.1-2.55,2.46.9,2.44,2.55,2.44,2.53-1.1,2.53-2.44Z"/>
    <path class="cls-1" d="m794.66,46.05h1.87v1.25c.9-.99,2.05-1.69,3.7-1.69,2.49,0,4.33,1.67,4.33,4.82v6.71h-1.89v-6.64c0-1.98-1.1-3.12-2.82-3.12-1.61,0-2.62.92-3.32,2.09v7.68h-1.87v-11.09Z"/>
    <path class="cls-1" d="m813.43,57.58c-3.74,0-6.05-2.75-6.05-5.99s2.16-5.98,5.59-5.98c3.01,0,4.97,2.05,4.97,4.82,0,.44-.07.88-.13,1.19h-8.49v.04c0,2.44,1.67,4.22,4.16,4.22,1.41,0,2.6-.66,3.32-1.65l1.39,1.08c-1.03,1.39-2.68,2.27-4.75,2.27Zm-3.96-7.44h6.58c-.07-1.61-1.23-2.93-3.06-2.93s-3.08,1.01-3.52,2.93Z"/>
    <path class="cls-1" d="m404.98,82.14l1.65,1.28c-1.41,1.91-3.67,3.17-6.45,3.17-4.82,0-8.1-3.74-8.1-8.14s3.28-8.14,8.1-8.14c2.77,0,5.04,1.28,6.45,3.17l-1.65,1.28c-1.03-1.5-2.73-2.51-4.8-2.51-3.48,0-5.96,2.77-5.96,6.21s2.49,6.21,5.96,6.21c2.07,0,3.76-1.01,4.8-2.51Z"/>
    <path class="cls-1" d="m408.77,83.41c0-1.72,1.28-2.95,3.65-3.32l3.72-.62v-.77c0-1.54-1.1-2.42-2.66-2.42-1.3,0-2.38.57-3.01,1.54l-1.41-1.08c.97-1.32,2.53-2.13,4.47-2.13,2.82,0,4.49,1.65,4.49,4.09v7.44h-1.87v-1.41c-.84,1.17-2.22,1.85-3.72,1.85-2.18,0-3.65-1.23-3.65-3.17Zm3.96,1.61c1.47,0,2.64-.77,3.41-2.05v-2.11l-3.28.57c-1.54.24-2.22.95-2.22,1.92s.81,1.67,2.09,1.67Z"/>
    <path class="cls-1" d="m421.79,75.05h1.87v1.23c1.01-1.08,2.33-1.67,3.94-1.67,3.48,0,5.7,2.75,5.7,5.98s-2.22,5.99-5.7,5.99c-1.61,0-2.93-.59-3.94-1.67v6.65h-1.87v-16.5Zm5.59,9.77c2.35,0,3.96-1.87,3.96-4.22s-1.61-4.22-3.96-4.22c-1.54,0-2.86.75-3.72,2.11v4.22c.86,1.36,2.18,2.11,3.72,2.11Z"/>
    <path class="cls-1" d="m436.77,76.77h-2.09v-1.72h2.09v-2.77h1.89v2.77h3.85v1.72h-3.85v5.65c0,1.74.88,2.22,2.22,2.22.73,0,1.23-.09,1.65-.26v1.67c-.53.22-1.12.31-1.91.31-2.46,0-3.85-1.23-3.85-3.94v-5.65Z"/>
    <path class="cls-1" d="m444.76,83.41c0-1.72,1.28-2.95,3.65-3.32l3.72-.62v-.77c0-1.54-1.1-2.42-2.66-2.42-1.3,0-2.38.57-3.01,1.54l-1.41-1.08c.97-1.32,2.53-2.13,4.47-2.13,2.82,0,4.49,1.65,4.49,4.09v7.44h-1.87v-1.41c-.84,1.17-2.22,1.85-3.72,1.85-2.18,0-3.65-1.23-3.65-3.17Zm3.96,1.61c1.47,0,2.64-.77,3.41-2.05v-2.11l-3.28.57c-1.54.24-2.22.95-2.22,1.92s.81,1.67,2.09,1.67Z"/>
    <path class="cls-1" d="m458.42,76.77h-2.09v-1.72h2.09v-2.77h1.89v2.77h3.85v1.72h-3.85v5.65c0,1.74.88,2.22,2.22,2.22.73,0,1.23-.09,1.65-.26v1.67c-.53.22-1.12.31-1.91.31-2.46,0-3.85-1.23-3.85-3.94v-5.65Z"/>
    <path class="cls-1" d="m466.65,70.85c0-.7.59-1.3,1.32-1.3s1.3.59,1.3,1.3-.57,1.32-1.3,1.32-1.32-.59-1.32-1.32Zm.38,4.2h1.87v11.09h-1.87v-11.09Z"/>
    <path class="cls-1" d="m483.92,80.6c0,3.23-2.44,5.99-6.01,5.99s-6.01-2.75-6.01-5.99,2.42-5.98,6.01-5.98,6.01,2.75,6.01,5.98Zm-1.98,0c0-2.31-1.69-4.22-4-4.22s-4.07,1.91-4.07,4.22,1.69,4.22,4.07,4.22,4-1.94,4-4.22Z"/>
    <path class="cls-1" d="m486.93,75.05h1.87v1.25c.9-.99,2.05-1.69,3.7-1.69,2.49,0,4.33,1.67,4.33,4.82v6.71h-1.89v-6.64c0-1.98-1.1-3.12-2.82-3.12-1.61,0-2.62.92-3.32,2.09v7.68h-1.87v-11.09Z"/>
    <path class="cls-1" d="m500.73,83.48c.77.97,1.69,1.54,2.82,1.54,1.23,0,1.94-.75,1.94-1.72,0-2.51-5.43-1.58-5.43-5.57,0-1.78,1.47-3.12,3.56-3.12,1.63,0,2.99.75,3.76,1.83l-1.3,1.12c-.62-.88-1.43-1.39-2.44-1.39-1.14,0-1.76.62-1.76,1.52,0,2.53,5.43,1.65,5.43,5.52-.02,2.07-1.67,3.37-3.74,3.37-1.76,0-3.15-.7-4.16-1.96l1.32-1.14Z"/>
    <path class="cls-1" d="m515.66,83.41c0-1.72,1.28-2.95,3.65-3.32l3.72-.62v-.77c0-1.54-1.1-2.42-2.66-2.42-1.3,0-2.38.57-3.01,1.54l-1.41-1.08c.97-1.32,2.53-2.13,4.47-2.13,2.82,0,4.49,1.65,4.49,4.09v7.44h-1.87v-1.41c-.84,1.17-2.22,1.85-3.72,1.85-2.18,0-3.65-1.23-3.65-3.17Zm3.96,1.61c1.47,0,2.64-.77,3.41-2.05v-2.11l-3.28.57c-1.54.24-2.22.95-2.22,1.92s.81,1.67,2.09,1.67Z"/>
    <path class="cls-1" d="m536.39,75.05h1.89v6.27c0,3.32-1.91,5.26-4.93,5.26s-4.91-1.94-4.91-5.26v-6.27h1.87v6.34c0,2.18,1.17,3.43,3.06,3.43s3.01-1.25,3.01-3.43v-6.34Z"/>
    <path class="cls-1" d="m546.73,74.61c1.61,0,2.93.59,3.94,1.67v-6.64h1.87v16.5h-1.87v-1.23c-1.01,1.08-2.33,1.67-3.94,1.67-3.48,0-5.7-2.75-5.7-5.99s2.22-5.98,5.7-5.98Zm.22,10.21c1.54,0,2.86-.75,3.72-2.07v-4.31c-.88-1.34-2.2-2.07-3.72-2.07-2.36,0-3.94,1.87-3.94,4.22s1.58,4.22,3.94,4.22Z"/>
    <path class="cls-1" d="m556.1,70.85c0-.7.59-1.3,1.32-1.3s1.3.59,1.3,1.3-.57,1.32-1.3,1.32-1.32-.59-1.32-1.32Zm.38,4.2h1.87v11.09h-1.87v-11.09Z"/>
    <path class="cls-1" d="m573.37,80.6c0,3.23-2.44,5.99-6.01,5.99s-6.01-2.75-6.01-5.99,2.42-5.98,6.01-5.98,6.01,2.75,6.01,5.98Zm-1.98,0c0-2.31-1.69-4.22-4-4.22s-4.07,1.91-4.07,4.22,1.69,4.22,4.07,4.22,4-1.94,4-4.22Z"/>
    <path class="cls-1" d="m587.43,86.58c-3.74,0-6.05-2.75-6.05-5.99s2.16-5.98,5.59-5.98c3.01,0,4.97,2.05,4.97,4.82,0,.44-.07.88-.13,1.19h-8.49v.04c0,2.44,1.67,4.22,4.16,4.22,1.41,0,2.6-.66,3.32-1.65l1.39,1.08c-1.04,1.39-2.69,2.27-4.75,2.27Zm-3.96-7.44h6.58c-.07-1.61-1.23-2.93-3.06-2.93s-3.08,1.01-3.52,2.93Z"/>
    <path class="cls-1" d="m595.68,76.77h-2.09v-1.72h2.09v-2.77h1.89v2.77h3.85v1.72h-3.85v5.65c0,1.74.88,2.22,2.22,2.22.73,0,1.23-.09,1.65-.26v1.67c-.53.22-1.12.31-1.92.31-2.46,0-3.85-1.23-3.85-3.94v-5.65Z"/>
    <path class="cls-1" d="m610.57,75.05l3.54,9.13,3.54-9.13h2.02l-4.33,11.09h-2.46l-4.33-11.09h2.02Z"/>
    <path class="cls-1" d="m621.59,70.85c0-.7.59-1.3,1.32-1.3s1.3.59,1.3,1.3-.57,1.32-1.3,1.32-1.32-.59-1.32-1.32Zm.37,4.2h1.87v11.09h-1.87v-11.09Z"/>
    <path class="cls-1" d="m632.55,74.61c1.61,0,2.93.59,3.94,1.67v-6.64h1.87v16.5h-1.87v-1.23c-1.01,1.08-2.33,1.67-3.94,1.67-3.48,0-5.7-2.75-5.7-5.99s2.22-5.98,5.7-5.98Zm.22,10.21c1.54,0,2.86-.75,3.72-2.07v-4.31c-.88-1.34-2.2-2.07-3.72-2.07-2.35,0-3.94,1.87-3.94,4.22s1.58,4.22,3.94,4.22Z"/>
    <path class="cls-1" d="m647.4,86.58c-3.74,0-6.05-2.75-6.05-5.99s2.16-5.98,5.59-5.98c3.01,0,4.97,2.05,4.97,4.82,0,.44-.07.88-.13,1.19h-8.49v.04c0,2.44,1.67,4.22,4.16,4.22,1.41,0,2.6-.66,3.32-1.65l1.39,1.08c-1.03,1.39-2.68,2.27-4.75,2.27Zm-3.96-7.44h6.58c-.07-1.61-1.23-2.93-3.06-2.93s-3.08,1.01-3.52,2.93Zm2.66-5.85l2.29-3.65h2.11l-2.57,3.65h-1.83Z"/>
    <path class="cls-1" d="m666.1,80.6c0,3.23-2.44,5.99-6.01,5.99s-6.01-2.75-6.01-5.99,2.42-5.98,6.01-5.98,6.01,2.75,6.01,5.98Zm-1.98,0c0-2.31-1.69-4.22-4-4.22s-4.07,1.91-4.07,4.22,1.69,4.22,4.07,4.22,4-1.94,4-4.22Z"/>
    <path class="cls-1" d="m675.05,75.05h1.87v1.23c1.01-1.08,2.33-1.67,3.94-1.67,3.48,0,5.7,2.75,5.7,5.98s-2.22,5.99-5.7,5.99c-1.61,0-2.93-.59-3.94-1.67v6.65h-1.87v-16.5Zm5.59,9.77c2.35,0,3.96-1.87,3.96-4.22s-1.61-4.22-3.96-4.22c-1.54,0-2.86.75-3.72,2.11v4.22c.86,1.36,2.18,2.11,3.72,2.11Z"/>
    <path class="cls-1" d="m694.79,86.58c-3.74,0-6.05-2.75-6.05-5.99s2.16-5.98,5.59-5.98c3.01,0,4.97,2.05,4.97,4.82,0,.44-.07.88-.13,1.19h-8.49v.04c0,2.44,1.67,4.22,4.16,4.22,1.41,0,2.6-.66,3.32-1.65l1.39,1.08c-1.03,1.39-2.68,2.27-4.75,2.27Zm-3.96-7.44h6.58c-.07-1.61-1.23-2.93-3.06-2.93s-3.08,1.01-3.52,2.93Zm2.66-5.85l2.29-3.65h2.11l-2.57,3.65h-1.83Z"/>
    <path class="cls-1" d="m707.17,74.61c1.61,0,2.93.59,3.94,1.67v-6.64h1.87v16.5h-1.87v-1.23c-1.01,1.08-2.33,1.67-3.94,1.67-3.48,0-5.7-2.75-5.7-5.99s2.22-5.98,5.7-5.98Zm.22,10.21c1.54,0,2.86-.75,3.72-2.07v-4.31c-.88-1.34-2.2-2.07-3.72-2.07-2.35,0-3.94,1.87-3.94,4.22s1.58,4.22,3.94,4.22Z"/>
    <path class="cls-1" d="m716.3,83.41c0-1.72,1.28-2.95,3.65-3.32l3.72-.62v-.77c0-1.54-1.1-2.42-2.66-2.42-1.3,0-2.38.57-3.01,1.54l-1.41-1.08c.97-1.32,2.53-2.13,4.47-2.13,2.82,0,4.49,1.65,4.49,4.09v7.44h-1.87v-1.41c-.84,1.17-2.22,1.85-3.72,1.85-2.18,0-3.65-1.23-3.65-3.17Zm3.96,1.61c1.47,0,2.64-.77,3.41-2.05v-2.11l-3.28.57c-1.54.24-2.22.95-2.22,1.92s.81,1.67,2.09,1.67Z"/>
    <path class="cls-1" d="m729.7,85.35c-.51-.4-.77-.99-.77-1.58,0-.88.46-1.61,1.32-2.16-.97-.73-1.54-1.85-1.54-3.08,0-2.13,1.67-3.94,4.31-3.94.81,0,1.54.18,2.13.46h4.11v1.63h-2.4c.31.55.46,1.19.46,1.85,0,2.11-1.65,3.92-4.31,3.92-.55,0-1.08-.09-1.54-.22-.46.33-.73.73-.73,1.14,0,.46.24.79.92.79h3.17c2.93,0,4.29,1.43,4.29,3.41,0,2.38-2.24,4.07-5.66,4.07s-5.43-1.28-5.43-3.5c0-1.12.57-2,1.65-2.79Zm3.76,4.73c2.33,0,3.81-.92,3.81-2.38,0-1.06-.59-1.89-2.58-1.89h-3.37c-.95.57-1.45,1.21-1.45,2.11,0,1.34,1.39,2.16,3.59,2.16Zm2.11-11.55c0-1.36-.92-2.46-2.53-2.46s-2.55,1.1-2.55,2.46.9,2.44,2.55,2.44,2.53-1.1,2.53-2.44Z"/>
    <path class="cls-1" d="m752.14,80.6c0,3.23-2.44,5.99-6.01,5.99s-6.01-2.75-6.01-5.99,2.42-5.98,6.01-5.98,6.01,2.75,6.01,5.98Zm-1.98,0c0-2.31-1.69-4.22-4-4.22s-4.07,1.91-4.07,4.22,1.69,4.22,4.07,4.22,4-1.94,4-4.22Z"/>
    <path class="cls-1" d="m755.44,85.35c-.51-.4-.77-.99-.77-1.58,0-.88.46-1.61,1.32-2.16-.97-.73-1.54-1.85-1.54-3.08,0-2.13,1.67-3.94,4.31-3.94.81,0,1.54.18,2.13.46h4.11v1.63h-2.4c.31.55.46,1.19.46,1.85,0,2.11-1.65,3.92-4.31,3.92-.55,0-1.08-.09-1.54-.22-.46.33-.73.73-.73,1.14,0,.46.24.79.92.79h3.17c2.93,0,4.29,1.43,4.29,3.41,0,2.38-2.24,4.07-5.66,4.07s-5.43-1.28-5.43-3.5c0-1.12.57-2,1.65-2.79Zm3.76,4.73c2.33,0,3.81-.92,3.81-2.38,0-1.06-.59-1.89-2.58-1.89h-3.37c-.95.57-1.45,1.21-1.45,2.11,0,1.34,1.39,2.16,3.59,2.16Zm2.11-11.55c0-1.36-.92-2.46-2.53-2.46s-2.55,1.1-2.55,2.46.9,2.44,2.55,2.44,2.53-1.1,2.53-2.44Z"/>
    <path class="cls-1" d="m766.79,70.85c0-.7.59-1.3,1.32-1.3s1.3.59,1.3,1.3-.57,1.32-1.3,1.32-1.32-.59-1.32-1.32Zm.37,4.2h1.87v11.09h-1.87v-11.09Z"/>
    <path class="cls-1" d="m777.75,74.61c1.63,0,2.95.62,3.94,1.69v-1.25h1.87v16.5h-1.87v-6.67c-.99,1.08-2.31,1.69-3.94,1.69-3.48,0-5.7-2.75-5.7-5.99s2.22-5.98,5.7-5.98Zm.2,10.21c1.56,0,2.88-.75,3.74-2.11v-4.22c-.86-1.36-2.18-2.11-3.74-2.11-2.33,0-3.94,1.87-3.94,4.22s1.61,4.22,3.94,4.22Z"/>
    <path class="cls-1" d="m795.22,75.05h1.89v6.27c0,3.32-1.91,5.26-4.93,5.26s-4.91-1.94-4.91-5.26v-6.27h1.87v6.34c0,2.18,1.17,3.43,3.06,3.43s3.01-1.25,3.01-3.43v-6.34Z"/>
    <path class="cls-1" d="m805.91,86.58c-3.74,0-6.05-2.75-6.05-5.99s2.16-5.98,5.59-5.98c3.01,0,4.97,2.05,4.97,4.82,0,.44-.07.88-.13,1.19h-8.49v.04c0,2.44,1.67,4.22,4.16,4.22,1.41,0,2.6-.66,3.32-1.65l1.39,1.08c-1.03,1.39-2.68,2.27-4.75,2.27Zm-3.96-7.44h6.58c-.07-1.61-1.23-2.93-3.06-2.93s-3.08,1.01-3.52,2.93Z"/>
    <path class="cls-1" d="m813.63,83.48c.77.97,1.69,1.54,2.82,1.54,1.23,0,1.94-.75,1.94-1.72,0-2.51-5.43-1.58-5.43-5.57,0-1.78,1.47-3.12,3.56-3.12,1.63,0,2.99.75,3.76,1.83l-1.3,1.12c-.62-.88-1.43-1.39-2.44-1.39-1.14,0-1.76.62-1.76,1.52,0,2.53,5.43,1.65,5.43,5.52-.02,2.07-1.67,3.37-3.74,3.37-1.76,0-3.15-.7-4.16-1.96l1.32-1.14Z"/>
    <path class="cls-1" d="m505.96,99.74h8.27v1.8h-6.21v4.86h5.32v1.78h-5.32v6.95h-2.07v-15.4Z"/>
    <path class="cls-1" d="m516.63,99.85c0-.7.59-1.3,1.32-1.3s1.3.59,1.3,1.3-.57,1.32-1.3,1.32-1.32-.59-1.32-1.32Zm.37,4.2h1.87v11.09h-1.87v-11.09Z"/>
    <path class="cls-1" d="m522.84,98.64h1.87v16.5h-1.87v-16.5Z"/>
    <path class="cls-1" d="m528.67,104.05h1.87v1.21c.84-.97,1.94-1.65,3.48-1.65,1.63,0,2.97.75,3.65,2.22.88-1.25,2.09-2.22,3.92-2.22,2.38,0,4.12,1.58,4.12,4.6v6.93h-1.87v-6.87c0-1.85-1.03-2.9-2.62-2.9-1.41,0-2.38.81-3.12,2.11.02.24.04.48.04.73v6.93h-1.89v-6.87c0-1.85-.99-2.9-2.6-2.9-1.52,0-2.46.95-3.1,2.09v7.68h-1.87v-11.09Z"/>
    <path class="cls-1" d="m549.59,112.48c.77.97,1.7,1.54,2.82,1.54,1.23,0,1.94-.75,1.94-1.72,0-2.51-5.43-1.58-5.43-5.57,0-1.78,1.47-3.12,3.56-3.12,1.63,0,2.99.75,3.76,1.83l-1.3,1.12c-.62-.88-1.43-1.39-2.44-1.39-1.14,0-1.76.62-1.76,1.52,0,2.53,5.44,1.65,5.44,5.52-.02,2.07-1.67,3.37-3.74,3.37-1.76,0-3.15-.7-4.16-1.96l1.32-1.14Z"/>
    <path class="cls-1" d="m570.24,115.58c-3.74,0-6.05-2.75-6.05-5.99s2.16-5.98,5.59-5.98c3.01,0,4.97,2.05,4.97,4.82,0,.44-.07.88-.13,1.19h-8.49v.04c0,2.44,1.67,4.22,4.16,4.22,1.41,0,2.6-.66,3.32-1.65l1.39,1.08c-1.04,1.39-2.69,2.27-4.75,2.27Zm-3.96-7.44h6.58c-.07-1.61-1.23-2.93-3.06-2.93s-3.08,1.01-3.52,2.93Z"/>
    <path class="cls-1" d="m578.49,105.77h-2.09v-1.72h2.09v-2.77h1.89v2.77h3.85v1.72h-3.85v5.65c0,1.74.88,2.22,2.22,2.22.73,0,1.23-.09,1.65-.26v1.67c-.53.22-1.12.31-1.92.31-2.46,0-3.85-1.23-3.85-3.94v-5.65Z"/>
    <path class="cls-1" d="m592.42,112.41c0-1.72,1.28-2.95,3.65-3.32l3.72-.62v-.77c0-1.54-1.1-2.42-2.66-2.42-1.3,0-2.38.57-3.01,1.54l-1.41-1.08c.97-1.32,2.53-2.13,4.47-2.13,2.82,0,4.49,1.65,4.49,4.09v7.44h-1.87v-1.41c-.84,1.17-2.22,1.85-3.72,1.85-2.18,0-3.65-1.23-3.65-3.17Zm3.96,1.61c1.47,0,2.64-.77,3.41-2.05v-2.11l-3.28.57c-1.54.24-2.22.95-2.22,1.92s.81,1.67,2.09,1.67Z"/>
    <path class="cls-1" d="m605.44,104.05h1.87v1.25c.9-.99,2.05-1.69,3.7-1.69,2.49,0,4.33,1.67,4.33,4.82v6.71h-1.89v-6.64c0-1.98-1.1-3.12-2.82-3.12-1.61,0-2.62.92-3.32,2.09v7.68h-1.87v-11.09Z"/>
    <path class="cls-1" d="m618.73,99.85c0-.7.59-1.3,1.32-1.3s1.3.59,1.3,1.3-.57,1.32-1.3,1.32-1.32-.59-1.32-1.32Zm.37,4.2h1.87v11.09h-1.87v-11.09Z"/>
    <path class="cls-1" d="m624.94,104.05h1.87v1.21c.84-.97,1.94-1.65,3.48-1.65,1.63,0,2.97.75,3.65,2.22.88-1.25,2.09-2.22,3.92-2.22,2.38,0,4.11,1.58,4.11,4.6v6.93h-1.87v-6.87c0-1.85-1.03-2.9-2.62-2.9-1.41,0-2.38.81-3.12,2.11.02.24.04.48.04.73v6.93h-1.89v-6.87c0-1.85-.99-2.9-2.6-2.9-1.52,0-2.46.95-3.1,2.09v7.68h-1.87v-11.09Z"/>
    <path class="cls-1" d="m645.11,112.41c0-1.72,1.28-2.95,3.65-3.32l3.72-.62v-.77c0-1.54-1.1-2.42-2.66-2.42-1.3,0-2.38.57-3.01,1.54l-1.41-1.08c.97-1.32,2.53-2.13,4.47-2.13,2.82,0,4.49,1.65,4.49,4.09v7.44h-1.87v-1.41c-.84,1.17-2.22,1.85-3.72,1.85-2.18,0-3.65-1.23-3.65-3.17Zm3.96,1.61c1.47,0,2.64-.77,3.41-2.05v-2.11l-3.28.57c-1.54.24-2.22.95-2.22,1.92s.81,1.67,2.09,1.67Z"/>
    <path class="cls-1" d="m658.77,105.77h-2.09v-1.72h2.09v-2.77h1.89v2.77h3.85v1.72h-3.85v5.65c0,1.74.88,2.22,2.22,2.22.73,0,1.23-.09,1.65-.26v1.67c-.53.22-1.12.31-1.91.31-2.46,0-3.85-1.23-3.85-3.94v-5.65Z"/>
    <path class="cls-1" d="m667,99.85c0-.7.59-1.3,1.32-1.3s1.3.59,1.3,1.3-.57,1.32-1.3,1.32-1.32-.59-1.32-1.32Zm.37,4.2h1.87v11.09h-1.87v-11.09Z"/>
    <path class="cls-1" d="m684.27,109.6c0,3.23-2.44,5.99-6.01,5.99s-6.01-2.75-6.01-5.99,2.42-5.98,6.01-5.98,6.01,2.75,6.01,5.98Zm-1.98,0c0-2.31-1.69-4.22-4-4.22s-4.07,1.91-4.07,4.22,1.69,4.22,4.07,4.22,4-1.94,4-4.22Z"/>
    <path class="cls-1" d="m687.28,104.05h1.87v1.25c.9-.99,2.05-1.69,3.7-1.69,2.49,0,4.33,1.67,4.33,4.82v6.71h-1.89v-6.64c0-1.98-1.1-3.12-2.82-3.12-1.61,0-2.62.92-3.32,2.09v7.68h-1.87v-11.09Z"/>
    <path class="cls-1" d="m701.08,112.48c.77.97,1.69,1.54,2.82,1.54,1.23,0,1.94-.75,1.94-1.72,0-2.51-5.43-1.58-5.43-5.57,0-1.78,1.47-3.12,3.56-3.12,1.63,0,2.99.75,3.76,1.83l-1.3,1.12c-.62-.88-1.43-1.39-2.44-1.39-1.14,0-1.76.62-1.76,1.52,0,2.53,5.43,1.65,5.43,5.52-.02,2.07-1.67,3.37-3.74,3.37-1.76,0-3.15-.7-4.16-1.96l1.32-1.14Z"/>
  </g>
  <path class="cls-1" d="M 340.277 231.796 C 337.797 231.936 335.447 231.366 333.127 230.566 C 331.357 229.956 332.467 228.956 332.637 228.056 C 332.877 226.826 333.577 227.076 334.417 227.456 C 336.947 228.586 339.617 228.796 342.327 228.426 C 344.107 228.186 345.627 227.456 346.027 225.506 C 346.427 223.576 345.587 222.116 344.007 221.026 C 342.817 220.196 341.437 219.756 340.107 219.206 C 338.947 218.726 337.757 218.336 336.647 217.766 C 333.447 216.136 332.187 213.726 332.637 210.276 C 333.017 207.356 334.987 205.236 338.227 204.476 C 341.407 203.726 344.547 204.016 347.647 205.056 C 348.837 205.456 349.037 206.026 348.487 207.106 C 348.047 207.976 347.997 209.006 346.477 208.256 C 344.467 207.266 342.247 207.146 340.047 207.496 C 338.417 207.756 337.037 208.466 336.657 210.256 C 336.257 212.126 336.947 213.616 338.657 214.466 C 340.897 215.576 343.227 216.506 345.477 217.586 C 348.877 219.216 350.347 221.676 350.127 225.176 C 349.897 228.916 347.007 231.386 342.347 231.796 C 341.667 231.856 340.967 231.796 340.287 231.796 L 340.277 231.796 Z" transform="matrix(1, 0, 0, 1, 0, 1.7763568394002505e-15)"/>
  <path class="cls-1" d="M 406.447 217.936 C 406.447 214.016 406.497 210.096 406.417 206.176 C 406.387 204.836 406.857 204.496 408.137 204.516 C 412.457 204.586 416.777 204.596 421.087 204.516 C 422.487 204.486 422.697 205.026 422.737 206.246 C 422.777 207.616 422.257 207.916 420.997 207.886 C 417.937 207.806 414.867 207.906 411.797 207.836 C 410.697 207.816 410.207 208.056 410.267 209.266 C 410.357 211.066 410.347 212.876 410.267 214.676 C 410.217 215.766 410.627 216.066 411.667 216.036 C 414.357 215.976 417.047 216.056 419.737 215.996 C 420.797 215.976 421.337 216.156 421.277 217.406 C 421.227 218.496 421.147 219.136 419.777 219.076 C 417.217 218.976 414.647 219.146 412.087 219.006 C 410.537 218.926 410.207 219.486 410.257 220.906 C 410.357 223.886 410.197 226.886 410.327 229.866 C 410.407 231.656 409.287 231.316 408.267 231.336 C 407.237 231.366 406.337 231.526 406.397 229.876 C 406.537 225.896 406.437 221.906 406.437 217.926 L 406.447 217.936 Z" transform="matrix(1, 0, 0, 1, 0, 1.7763568394002505e-15)"/>
  <path class="cls-1" d="M 365.297 204.706 C 362.187 204.236 359.067 204.396 355.947 204.776 C 354.697 204.926 354.437 205.466 354.447 206.586 C 354.507 210.316 354.467 214.056 354.467 217.796 C 354.467 221.536 354.507 225.516 354.447 229.376 C 354.427 230.536 354.767 230.986 355.967 231.166 C 358.647 231.566 361.347 231.596 364.017 231.406 C 371.037 230.886 375.447 227.146 376.377 220.566 C 377.457 212.916 374.467 206.096 365.287 204.716 L 365.297 204.706 Z M 372.417 219.986 C 371.787 224.776 368.877 227.576 364.047 228.106 C 360.273 228.513 358.387 226.88 358.387 223.206 L 358.387 217.786 C 358.387 214.986 358.457 212.176 358.357 209.376 C 358.307 208.036 358.827 207.646 360.067 207.646 C 361.757 207.646 363.457 207.636 365.117 207.956 C 368.867 208.686 371.237 210.896 372.157 214.596 C 372.597 216.376 372.647 218.176 372.407 219.976 L 372.417 219.986 Z" transform="matrix(1, 0, 0, 1, 0, 1.7763568394002505e-15)"/>
  <path class="cls-1" d="M 401.867 229.986 C 400.217 226.976 398.387 224.076 396.247 221.386 C 395.527 220.476 395.457 220.036 396.637 219.526 C 398.617 218.666 399.977 217.166 400.567 215.036 C 401.917 210.146 399.357 206.056 394.117 204.906 C 390.717 204.166 387.287 204.386 383.847 204.726 C 382.507 204.856 382.057 205.326 382.097 206.696 C 382.197 210.496 382.127 214.296 382.127 218.096 C 382.127 222.086 382.177 226.066 382.107 230.056 C 382.077 231.806 383.257 231.296 384.147 231.346 C 385.077 231.396 386.027 231.586 385.967 230.036 C 385.857 227.486 385.927 224.926 385.947 222.376 C 385.947 221.896 385.767 221.336 386.247 220.976 C 387.067 220.366 391.537 221.066 392.197 221.906 C 394.007 224.216 395.777 226.586 397.077 229.206 C 397.967 231.006 399.127 231.566 401.037 231.396 C 402.227 231.286 402.477 231.076 401.887 229.996 L 401.867 229.986 Z M 389.207 217.806 C 387.02 217.78 385.927 216.7 385.927 214.566 C 385.927 212.696 385.967 210.826 385.907 208.966 C 385.877 208.086 386.207 207.746 387.067 207.706 C 389.077 207.606 391.087 207.586 393.047 208.056 C 395.557 208.666 396.877 210.396 396.837 212.916 C 396.807 215.386 395.547 216.886 392.927 217.396 C 391.707 217.636 390.447 217.676 389.207 217.806 Z" transform="matrix(1, 0, 0, 1, 0, 1.7763568394002505e-15)"/>
  <path class="cls-1" d="M 263.997 262.066 L 264.967 262.066 L 264.967 281.066 L 273.557 281.066 L 273.557 281.976 L 263.997 281.976 L 263.997 262.066 Z" transform="matrix(1, 0, 0, 1, 0, 1.7763568394002505e-15)"/>
  <path class="cls-1" d="M 276.907 278.726 C 276.907 276.536 278.557 275.026 281.547 274.576 L 286.947 273.666 L 286.947 271.956 C 286.947 269.336 285.157 267.976 282.657 267.976 C 280.637 267.976 278.987 268.886 277.937 270.336 L 277.167 269.736 C 278.387 268.116 280.297 267.066 282.687 267.066 C 285.667 267.066 287.867 268.776 287.867 271.956 L 287.867 281.966 L 286.957 281.966 L 286.957 279.666 C 285.587 281.546 283.657 282.536 281.497 282.536 C 278.737 282.536 276.917 281.026 276.917 278.726 L 276.907 278.726 Z M 281.457 281.626 C 283.707 281.626 285.667 280.436 286.947 278.276 L 286.947 274.526 L 281.687 275.406 C 279.127 275.836 277.907 277.086 277.907 278.766 C 277.907 280.446 279.247 281.636 281.467 281.636 L 281.457 281.626 Z" transform="matrix(1, 0, 0, 1, 0, 1.7763568394002505e-15)"/>
  <path class="cls-1" d="M 300.477 282.546 C 298.177 282.546 295.987 281.466 294.587 279.586 L 294.587 281.976 L 293.677 281.976 L 293.677 260.646 L 294.587 260.646 L 294.587 270.036 C 295.977 268.156 298.167 267.076 300.477 267.076 C 304.917 267.076 307.957 270.636 307.957 274.816 C 307.957 278.996 304.917 282.546 300.477 282.546 Z M 294.587 271.286 L 294.587 278.336 C 295.897 280.496 298.117 281.666 300.477 281.666 C 304.257 281.666 306.937 278.536 306.937 274.806 C 306.937 271.076 304.267 267.946 300.477 267.946 C 298.087 267.946 295.867 269.136 294.587 271.276 L 294.587 271.286 Z" transform="matrix(1, 0, 0, 1, 0, 1.7763568394002505e-15)"/>
  <path class="cls-1" d="M 326.587 274.806 C 326.587 278.846 323.517 282.536 318.937 282.536 C 314.357 282.536 311.317 278.836 311.317 274.806 C 311.317 270.776 314.387 267.066 318.937 267.066 C 323.487 267.066 326.587 270.766 326.587 274.806 Z M 325.567 274.806 C 325.567 271.216 322.777 267.946 318.967 267.946 C 315.157 267.946 312.287 271.216 312.287 274.806 C 312.287 278.396 315.047 281.666 318.967 281.666 C 322.887 281.666 325.567 278.366 325.567 274.806 Z" transform="matrix(1, 0, 0, 1, 0, 1.7763568394002505e-15)"/>
  <path class="cls-1" d="M 331.237 267.636 L 332.147 267.636 L 332.147 269.996 C 333.427 268.176 334.847 267.356 336.837 267.356 C 337.237 267.356 337.637 267.416 338.007 267.526 L 338.007 268.376 C 337.607 268.266 337.267 268.206 336.837 268.206 C 334.787 268.206 333.457 269.176 332.147 271.306 L 332.147 281.976 L 331.237 281.976 L 331.237 267.646 L 331.237 267.636 Z" transform="matrix(1, 0, 0, 1, 0, 1.7763568394002505e-15)"/>
  <path class="cls-1" d="M 340.767 278.726 C 340.767 276.536 342.417 275.026 345.407 274.576 L 350.807 273.666 L 350.807 271.956 C 350.807 269.336 349.017 267.976 346.517 267.976 C 344.497 267.976 342.847 268.886 341.797 270.336 L 341.027 269.736 C 342.247 268.116 344.157 267.066 346.547 267.066 C 349.537 267.066 351.727 268.776 351.727 271.956 L 351.727 281.966 L 350.817 281.966 L 350.817 279.666 C 349.447 281.546 347.517 282.536 345.357 282.536 C 342.597 282.536 340.777 281.026 340.777 278.726 L 340.767 278.726 Z M 345.317 281.626 C 347.567 281.626 349.527 280.436 350.807 278.276 L 350.807 274.526 L 345.547 275.406 C 342.987 275.836 341.767 277.086 341.767 278.766 C 341.767 280.446 343.107 281.636 345.327 281.636 L 345.317 281.626 Z" transform="matrix(1, 0, 0, 1, 0, 1.7763568394002505e-15)"/>
  <path class="cls-1" d="M 358.227 268.486 L 355.497 268.486 L 355.497 267.636 L 358.227 267.636 L 358.227 264.046 L 359.167 264.046 L 359.167 267.636 L 364.937 267.636 L 364.937 268.486 L 359.167 268.486 L 359.167 277.726 C 359.167 280.746 360.707 281.366 362.837 281.366 C 363.687 281.366 364.317 281.256 364.937 281.026 L 364.937 281.936 C 364.307 282.166 363.627 282.246 362.837 282.246 C 360.167 282.246 358.227 281.196 358.227 277.726 L 358.227 268.486 Z" transform="matrix(1, 0, 0, 1, 0, 1.7763568394002505e-15)"/>
  <path class="cls-1" d="M 382.707 274.806 C 382.707 278.846 379.637 282.536 375.057 282.536 C 370.477 282.536 367.437 278.836 367.437 274.806 C 367.437 270.776 370.507 267.066 375.057 267.066 C 379.607 267.066 382.707 270.766 382.707 274.806 Z M 381.687 274.806 C 381.687 271.216 378.897 267.946 375.087 267.946 C 371.277 267.946 368.407 271.216 368.407 274.806 C 368.407 278.396 371.167 281.666 375.087 281.666 C 379.007 281.666 381.687 278.366 381.687 274.806 Z" transform="matrix(1, 0, 0, 1, 0, 1.7763568394002505e-15)"/>
  <path class="cls-1" d="M 386.937 261.496 C 386.937 261.016 387.337 260.646 387.817 260.646 C 388.327 260.646 388.697 261.016 388.697 261.496 C 388.697 262.006 388.327 262.346 387.817 262.346 C 387.337 262.346 386.937 262.006 386.937 261.496 Z M 387.367 267.636 L 388.277 267.636 L 388.277 281.966 L 387.367 281.966 L 387.367 267.636 Z" transform="matrix(1, 0, 0, 1, 0, 1.7763568394002505e-15)"/>
  <path class="cls-1" d="M 394.417 267.636 L 395.327 267.636 L 395.327 269.996 C 396.607 268.176 398.027 267.356 400.017 267.356 C 400.417 267.356 400.817 267.416 401.187 267.526 L 401.187 268.376 C 400.787 268.266 400.447 268.206 400.017 268.206 C 397.967 268.206 396.637 269.176 395.327 271.306 L 395.327 281.976 L 394.417 281.976 L 394.417 267.646 L 394.417 267.636 Z" transform="matrix(1, 0, 0, 1, 0, 1.7763568394002505e-15)"/>
  <path class="cls-1" d="M 410.427 282.546 C 405.907 282.546 402.777 278.996 402.777 274.816 C 402.777 270.316 405.707 267.076 409.827 267.076 C 413.607 267.076 416.027 269.696 416.027 273.046 C 416.027 273.326 415.997 273.646 415.947 273.956 L 403.827 273.956 C 403.797 274.246 403.797 274.526 403.797 274.806 C 403.797 278.536 406.557 281.666 410.457 281.666 C 412.647 281.666 414.467 280.606 415.607 278.996 L 416.407 279.596 C 415.097 281.386 413.027 282.556 410.437 282.556 L 410.427 282.546 Z M 403.967 273.076 L 415.007 273.076 C 414.917 270.176 412.817 267.986 409.887 267.986 C 406.957 267.986 404.567 269.916 403.967 273.076 Z" transform="matrix(1, 0, 0, 1, 0, 1.7763568394002505e-15)"/>
  <path class="cls-1" d="M 428.907 262.066 L 436.357 262.066 C 442.497 262.066 446.677 266.646 446.677 272.016 C 446.677 277.386 442.497 281.976 436.357 281.976 L 428.907 281.976 L 428.907 262.066 Z M 429.877 262.976 L 429.877 281.066 L 436.387 281.066 C 441.787 281.066 445.657 276.946 445.657 272.016 C 445.657 267.086 441.787 262.976 436.387 262.976 L 429.877 262.976 Z" transform="matrix(1, 0, 0, 1, 0, 1.7763568394002505e-15)"/>
  <path class="cls-1" d="M 451.057 261.496 C 451.057 261.016 451.457 260.646 451.937 260.646 C 452.447 260.646 452.817 261.016 452.817 261.496 C 452.817 262.006 452.447 262.346 451.937 262.346 C 451.457 262.346 451.057 262.006 451.057 261.496 Z M 451.487 267.636 L 452.397 267.636 L 452.397 281.966 L 451.487 281.966 L 451.487 267.636 Z" transform="matrix(1, 0, 0, 1, 0, 1.7763568394002505e-15)"/>
  <path class="cls-1" d="M 458.987 280.836 C 458.137 280.466 457.767 279.696 457.767 278.876 C 457.767 277.766 458.617 276.716 459.677 276.206 C 458.367 275.266 457.597 273.756 457.597 272.136 C 457.597 269.466 459.727 267.046 462.917 267.046 C 463.887 267.046 464.737 267.276 465.477 267.646 L 470.937 267.646 L 470.937 268.526 L 466.697 268.526 C 467.667 269.466 468.227 270.776 468.227 272.136 C 468.227 274.806 466.097 277.226 462.907 277.226 C 461.967 277.226 461.117 277.026 460.377 276.656 C 459.267 277.166 458.637 278.046 458.637 278.876 C 458.637 279.556 458.947 280.156 460.147 280.156 L 464.807 280.156 C 468.817 280.156 470.327 281.866 470.327 284.276 C 470.327 287.086 467.367 289.086 463.277 289.086 C 459.437 289.086 456.597 287.346 456.597 284.676 C 456.597 283.166 457.367 282.026 458.987 280.836 Z M 463.257 288.176 C 466.817 288.176 469.367 286.696 469.367 284.246 C 469.367 282.516 468.457 281.066 464.897 281.066 L 460.087 281.066 L 460.117 281.096 C 458.437 282.146 457.587 283.256 457.587 284.686 C 457.587 286.846 460.007 288.186 463.247 288.186 L 463.257 288.176 Z M 467.177 272.136 C 467.177 269.946 465.697 267.956 462.937 267.956 C 460.177 267.956 458.617 269.946 458.617 272.136 C 458.617 274.326 460.097 276.316 462.937 276.316 C 465.777 276.316 467.177 274.296 467.177 272.136 Z" transform="matrix(1, 0, 0, 1, 0, 1.7763568394002505e-15)"/>
  <path class="cls-1" d="M 473.577 261.496 C 473.577 261.016 473.977 260.646 474.457 260.646 C 474.967 260.646 475.337 261.016 475.337 261.496 C 475.337 262.006 474.967 262.346 474.457 262.346 C 473.977 262.346 473.577 262.006 473.577 261.496 Z M 474.007 267.636 L 474.917 267.636 L 474.917 281.966 L 474.007 281.966 L 474.007 267.636 Z" transform="matrix(1, 0, 0, 1, 0, 1.7763568394002505e-15)"/>
  <path class="cls-1" d="M 481.737 268.486 L 479.007 268.486 L 479.007 267.636 L 481.737 267.636 L 481.737 264.046 L 482.677 264.046 L 482.677 267.636 L 488.447 267.636 L 488.447 268.486 L 482.677 268.486 L 482.677 277.726 C 482.677 280.746 484.217 281.366 486.347 281.366 C 487.197 281.366 487.827 281.256 488.447 281.026 L 488.447 281.936 C 487.817 282.166 487.137 282.246 486.347 282.246 C 483.677 282.246 481.737 281.196 481.737 277.726 L 481.737 268.486 Z" transform="matrix(1, 0, 0, 1, 0, 1.7763568394002505e-15)"/>
  <path class="cls-1" d="M 491.827 278.726 C 491.827 276.536 493.477 275.026 496.467 274.576 L 501.867 273.666 L 501.867 271.956 C 501.867 269.336 500.077 267.976 497.577 267.976 C 495.557 267.976 493.907 268.886 492.857 270.336 L 492.087 269.736 C 493.307 268.116 495.217 267.066 497.607 267.066 C 500.587 267.066 502.787 268.776 502.787 271.956 L 502.787 281.966 L 501.877 281.966 L 501.877 279.666 C 500.507 281.546 498.577 282.536 496.417 282.536 C 493.657 282.536 491.837 281.026 491.837 278.726 L 491.827 278.726 Z M 496.377 281.626 C 498.627 281.626 500.587 280.436 501.867 278.276 L 501.867 274.526 L 496.607 275.406 C 494.047 275.836 492.827 277.086 492.827 278.766 C 492.827 280.446 494.167 281.636 496.387 281.636 L 496.377 281.626 Z" transform="matrix(1, 0, 0, 1, 0, 1.7763568394002505e-15)"/>
  <path class="cls-1" d="M 508.607 260.646 L 509.517 260.646 L 509.517 281.976 L 508.607 281.976 L 508.607 260.646 Z" transform="matrix(1, 0, 0, 1, 0, 1.7763568394002505e-15)"/>
  <path class="cls-1" d="M 250.107 260.646 C 249.567 249.456 243.657 240.296 235.827 232.716 C 233.257 230.236 230.307 227.646 227.087 225.406 C 231.847 222.166 236.177 218.386 239.237 213.436 C 245.087 204.006 245.737 190.586 239.307 181.266 C 232.757 171.776 221.447 166.886 210.097 169.326 C 205.917 170.216 203.107 175.316 204.397 179.356 C 205.827 183.736 209.957 185.996 214.427 185.036 C 214.557 184.996 215.407 184.946 215.607 184.896 L 216.037 184.896 C 216.457 184.896 216.867 184.936 217.287 184.936 L 217.377 184.936 C 218.267 185.186 219.187 185.386 220.077 185.656 C 220.117 185.676 220.127 185.676 220.167 185.696 L 220.187 185.696 C 220.747 186.006 221.327 186.256 221.867 186.586 C 222.287 186.826 222.667 187.096 223.057 187.346 L 223.077 187.366 C 223.707 187.926 224.307 188.526 224.887 189.156 C 224.887 189.196 225.667 190.136 225.917 190.566 C 226.167 190.986 226.367 191.476 226.627 191.906 C 226.767 192.246 226.877 192.576 226.967 192.916 C 227.147 193.516 227.297 194.126 227.417 194.746 C 227.437 194.796 227.437 194.856 227.437 194.906 C 227.457 195.156 227.507 195.596 227.527 195.816 C 227.567 196.376 227.577 196.956 227.567 197.536 C 227.547 197.986 227.517 198.446 227.477 198.916 L 227.477 199.006 C 227.477 199.006 227.457 199.076 227.437 199.136 C 227.077 200.326 226.837 201.576 226.457 202.776 C 226.437 202.796 226.437 202.826 226.417 202.866 C 226.167 203.356 225.927 203.846 225.677 204.316 C 225.387 204.826 225.057 205.296 224.767 205.796 C 224.727 205.886 224.627 206.036 224.527 206.156 C 224.507 206.196 224.477 206.226 224.437 206.266 C 224.417 206.306 224.387 206.336 224.367 206.376 C 223.697 207.156 222.977 207.876 222.227 208.586 C 221.867 208.926 221.487 209.276 221.107 209.596 C 221.057 209.646 220.277 210.246 220.017 210.446 C 220.017 210.446 220.01 210.453 219.997 210.466 L 219.977 210.486 C 219.977 210.486 219.937 210.506 219.937 210.506 C 211.717 216.296 202.427 220.376 194.337 226.306 C 185.957 232.446 178.547 240.266 175.547 250.436 C 169.627 270.456 184.867 291.626 205.037 294.486 C 215.337 295.936 226.147 293.866 234.857 288.006 C 244.077 281.796 250.647 272.126 250.087 260.646 L 250.107 260.646 Z M 212.197 284.276 C 197.717 284.276 185.977 272.526 185.977 258.046 C 185.977 246.586 193.307 236.846 203.557 233.276 C 206.257 232.316 209.167 231.806 212.197 231.806 C 213.467 231.806 214.717 231.896 215.947 232.076 C 228.657 233.886 238.437 244.826 238.437 258.036 C 238.437 272.516 226.687 284.266 212.207 284.266 L 212.197 284.276 Z" transform="matrix(1, 0, 0, 1, 0, 1.7763568394002505e-15)"/>
</svg>